<?xml version="1.0" encoding="iso-8859-1"?><!-- Generator: Adobe Illustrator 19.1.0, SVG Export Plug-In . SVG Version: 6.00 Build 0)  --><svg xmlns="http://www.w3.org/2000/svg" xmlns:xlink="http://www.w3.org/1999/xlink" viewBox="0 0 50 50" width="500px" height="500px"><g><path style="fill-rule:evenodd;clip-rule:evenodd;" d="M6.405,16.8C3.151,20.621,0,25.235,0,28.901c0,2.119,1.783,5.096,6.131,5.096c2.353,0,4.69-0.946,6.519-1.678c3.081-1.232,37.14-16.023,37.14-16.023c0.329-0.164,0.267-0.37-0.144-0.267c-0.166,0.041-37.078,10.045-37.078,10.045c-0.712,0.2-1.44,0.307-2.148,0.307c-3.191,0-5.341-1.53-5.341-4.876C5.078,20.208,5.484,18.642,6.405,16.8L6.405,16.8z"/></g></svg>