<svg xmlns="http://www.w3.org/2000/svg" viewBox="0 0 24 24" id="salomon"><path fill="#37474F" d="M0 11.95c0-1.853 3.681-3.179 8.448-3.653-2.21.71-4.298 2.187-4.298 3.829s2.012 2.892 5.469 2.892c2.863 0 5.594-1.011 5.594-2.623 0-.902-.744-.947-.744-1.499 0-.448.492-.814 1.293-.814 1.795 0 2.902.903 2.902 2.069 0 1.97-4.312 3.6-8.912 3.6C4.553 15.75 0 13.726 0 11.95zm24 .1c0 1.853-3.681 3.179-8.448 3.653 2.21-.71 4.298-2.187 4.298-3.829s-2.012-2.892-5.469-2.892c-2.863 0-5.594 1.011-5.594 2.623 0 .902.744.947.744 1.499 0 .448-.492.814-1.293.814-1.795 0-2.902-.903-2.902-2.069 0-1.97 4.312-3.6 8.912-3.6C19.447 8.25 24 10.274 24 12.05z"></path></svg>